HIERARCHY
ROOT Root
{
	OFFSET 0.00000 0.00000 0.00000
	CHANNELS 6 Xposition Yposition Zposition Zrotation Xrotation Yrotation
	JOINT Hips
	{
		OFFSET 0 0 0	
		CHANNELS 3 Zrotation Xrotation Yrotation
		JOINT Spine
		{
			OFFSET 0 4 0	
			CHANNELS 3 Zrotation Xrotation Yrotation
			JOINT Spine1
			{
				OFFSET 0 19.4 0	
				CHANNELS 3 Zrotation Xrotation Yrotation
				JOINT Spine2
				{
					OFFSET 0 16.6 0	
					CHANNELS 3 Zrotation Xrotation Yrotation
					JOINT LeftCollar
					{
						OFFSET 0 10 0	
						CHANNELS 3 Zrotation Xrotation Yrotation
						JOINT LeftArm
						{
							OFFSET 15.6 -2 3	
							CHANNELS 3 Zrotation Xrotation Yrotation
							JOINT LeftForeArm
							{
								OFFSET 3.5 -27 -1	
								CHANNELS 3 Zrotation Xrotation Yrotation
								JOINT LeftHand
								{
									OFFSET 1 -27 1	
									CHANNELS 3 Zrotation Xrotation Yrotation
									End Site
									{
										OFFSET 0 -15 0
									}
								}
							}
						}
					}
					JOINT RightCollar
					{
						OFFSET 0 10 0	
						CHANNELS 3 Zrotation Xrotation Yrotation
						JOINT RightArm
						{
							OFFSET -15.6 -2 3	
							CHANNELS 3 Zrotation Xrotation Yrotation
							JOINT RightForeArm
							{
								OFFSET -3.5 -27 -1	
								CHANNELS 3 Zrotation Xrotation Yrotation
								JOINT RightHand
								{
									OFFSET -1 -27 1	
									CHANNELS 3 Zrotation Xrotation Yrotation
									End Site
									{
										OFFSET 0 -15 0
									}
								}
							}
						}
					}
					JOINT Neck
					{
						OFFSET 0 10 0	
						CHANNELS 3 Zrotation Xrotation Yrotation
						JOINT Head
						{
							OFFSET 0 12.7 3	
							CHANNELS 3 Zrotation Xrotation Yrotation
							End Site
							{
								OFFSET 0 12.7 3
							}
						}
					}
				}
			}
		}
	}
	JOINT LeftHip
	{
		OFFSET 0 0 0	
		CHANNELS 3 Zrotation Xrotation Yrotation
		JOINT LeftUpLeg
		{
			OFFSET 8.8 -6 0	
			CHANNELS 3 Zrotation Xrotation Yrotation
			JOINT LeftLeg
			{
				OFFSET 0 -39 2	
				CHANNELS 3 Zrotation Xrotation Yrotation
				JOINT LeftFoot
				{
					OFFSET 0 -43 -2	
					CHANNELS 3 Zrotation Xrotation Yrotation
					JOINT LeftFootFront
					{
						OFFSET 0 -7 8.5	
						CHANNELS 3 Zrotation Xrotation Yrotation
						End Site
						{
							OFFSET 0 -0.5 9
						}
					}
				}
				JOINT LeftHeel
				{
					OFFSET 0 -43 -2	
					CHANNELS 3 Zrotation Xrotation Yrotation
					End Site
					{
						OFFSET 0 -7.5 -5
					}
				}
			}
		}
	}
	JOINT RightHip
	{
		OFFSET 0 0 0	
		CHANNELS 3 Zrotation Xrotation Yrotation
		JOINT RightUpLeg
		{
			OFFSET -8.8 -6 0	
			CHANNELS 3 Zrotation Xrotation Yrotation
			JOINT RightLeg
			{
				OFFSET 0 -39 2	
				CHANNELS 3 Zrotation Xrotation Yrotation
				JOINT RightFoot
				{
					OFFSET 0 -43 -2	
					CHANNELS 3 Zrotation Xrotation Yrotation
					JOINT RightFootFront
					{
						OFFSET 0 -7 8.5	
						CHANNELS 3 Zrotation Xrotation Yrotation
						End Site
						{
							OFFSET 0 -0.5 9
						}
					}
				}
				JOINT RightHeel
				{
					OFFSET 0 -43 -2	
					CHANNELS 3 Zrotation Xrotation Yrotation
					End Site
					{
						OFFSET 0 -7.5 -5
					}
				}
			}
		}
	}
}
MOTION
Frames: 37
Frame Time: 0.05
0 95.5 0 -0 0 -0 -0 0 -0 -0 0 -0 -0.38776 5.2433 34.356 -0 0 -0 -0 0 -0 25.776 7.8047 112.69 -102.07 25.439 -8.2168 -0 0 -0 -0 0 -0 54.296 -32.345 57.816 -0.53373 -39.657 -38.184 -0 0 -0 8.5989 -12.467 20.019 8.5989 -12.467 20.019 -0 0 -0 -0 0 -0 -0 0 -0 -0 0 -0 -0 0 -0 -0 0 -0 -0 0 -0 -0 0 -0 -0 0 -0 -0 0 -0 -0 0 -0 -0 0 -0 
0 95.5 0 -0 0 -0 -0 0 -0 -0 0 -0 -0.13369 4.943 35.877 -0 0 -0 -0 0 -0 27.074 9.8496 110.73 -101.14 25.066 -11.801 -0 0 -0 -0 0 -0 55.163 -32.623 61.724 -4.5286 -33.223 -41.983 -0 0 -0 8.214 -12.798 19.198 8.214 -12.798 19.198 -0 0 -0 -0 0 -0 -0 0 -0 -0 0 -0 -0 0 -0 -0 0 -0 -0 0 -0 -0 0 -0 -0 0 -0 -0 0 -0 -0 0 -0 -0 0 -0 
0 95.5 0 -0 0 -0 -0 0 -0 -0 0 -0 -0.44147 4.534 37.103 -0 0 -0 -0 0 -0 28.713 12.208 109.26 -100.87 24.435 -14.446 -0 0 -0 -0 0 -0 57.229 -32.352 62.324 -5.8599 -29.98 -40.482 -0 0 -0 7.9789 -13.021 18.604 7.9789 -13.021 18.604 -0 0 -0 -0 0 -0 -0 0 -0 -0 0 -0 -0 0 -0 -0 0 -0 -0 0 -0 -0 0 -0 -0 0 -0 -0 0 -0 -0 0 -0 -0 0 -0 
0 95.5 0 -0 0 -0 -0 0 -0 -0 0 -0 -0.85647 4.3319 37.752 -0 0 -0 -0 0 -0 29.766 14.734 108.85 -100.61 23.88 -17.296 -0 0 -0 -0 0 -0 59.942 -31.715 62.403 -7.2115 -29.768 -39.047 -0 0 -0 7.8984 -13.399 18.408 7.8984 -13.399 18.408 -0 0 -0 -0 0 -0 -0 0 -0 -0 0 -0 -0 0 -0 -0 0 -0 -0 0 -0 -0 0 -0 -0 0 -0 -0 0 -0 -0 0 -0 -0 0 -0 
0 95.5 0 -0 0 -0 -0 0 -0 -0 0 -0 -1.1084 3.8226 38.51 -0 0 -0 -0 0 -0 30.62 17.373 108.37 -100.14 23.279 -20.493 -0 0 -0 -0 0 -0 63.017 -31.447 63.013 -9.7531 -29.32 -39.872 -0 0 -0 8.0512 -13.601 18.115 8.0512 -13.601 18.115 -0 0 -0 -0 0 -0 -0 0 -0 -0 0 -0 -0 0 -0 -0 0 -0 -0 0 -0 -0 0 -0 -0 0 -0 -0 0 -0 -0 0 -0 -0 0 -0 
0 95.5 0 -0 0 -0 -0 0 -0 -0 0 -0 -1.3179 2.9006 39.34 -0 0 -0 -0 0 -0 31.584 19.841 108.17 -99.749 22.893 -23.045 -0 0 -0 -0 0 -0 66.034 -31.933 65.769 -13.542 -26.682 -41.3 -0 0 -0 8.5751 -13.443 17.58 8.5751 -13.443 17.58 -0 0 -0 -0 0 -0 -0 0 -0 -0 0 -0 -0 0 -0 -0 0 -0 -0 0 -0 -0 0 -0 -0 0 -0 -0 0 -0 -0 0 -0 -0 0 -0 
0 95.5 0 -0 0 -0 -0 0 -0 -0 0 -0 -1.616 2.0782 40.03 -0 0 -0 -0 0 -0 32.383 21.748 108.25 -99.479 22.32 -25.401 -0 0 -0 -0 0 -0 69.327 -32.447 68.868 -16.8 -22.862 -41.549 -0 0 -0 9.3684 -13.421 17.03 9.3684 -13.421 17.03 -0 0 -0 -0 0 -0 -0 0 -0 -0 0 -0 -0 0 -0 -0 0 -0 -0 0 -0 -0 0 -0 -0 0 -0 -0 0 -0 -0 0 -0 -0 0 -0 
0 95.5 0 -0 0 -0 -0 0 -0 -0 0 -0 -1.9498 1.4251 40.568 -0 0 -0 -0 0 -0 33.067 23.221 108.83 -99.05 22.069 -27.968 -0 0 -0 -0 0 -0 72.499 -32.705 71.366 -20.43 -19.155 -38.183 -0 0 -0 10.179 -13.734 16.588 10.179 -13.734 16.588 -0 0 -0 -0 0 -0 -0 0 -0 -0 0 -0 -0 0 -0 -0 0 -0 -0 0 -0 -0 0 -0 -0 0 -0 -0 0 -0 -0 0 -0 -0 0 -0 
0 95.5 0 -0 0 -0 -0 0 -0 -0 0 -0 -2.0961 0.89006 40.985 -0 0 -0 -0 0 -0 33.369 24.539 109.38 -98.121 21.654 -31.511 -0 0 -0 -0 0 -0 75.329 -33.091 74.316 -22.568 -15.93 -37.362 -0 0 -0 10.621 -14.113 16.219 10.621 -14.113 16.219 -0 0 -0 -0 0 -0 -0 0 -0 -0 0 -0 -0 0 -0 -0 0 -0 -0 0 -0 -0 0 -0 -0 0 -0 -0 0 -0 -0 0 -0 -0 0 -0 
0 95.5 0 -0 0 -0 -0 0 -0 -0 0 -0 -2.682 0.60743 41.222 -0 0 -0 -0 0 -0 33.384 25.378 110.23 -97.867 20.846 -33.372 -0 0 -0 -0 0 -0 78.513 -33.586 78.933 -24.322 -12.618 -35.315 -0 0 -0 10.998 -14.695 15.997 10.998 -14.695 15.997 -0 0 -0 -0 0 -0 -0 0 -0 -0 0 -0 -0 0 -0 -0 0 -0 -0 0 -0 -0 0 -0 -0 0 -0 -0 0 -0 -0 0 -0 -0 0 -0 
0 95.5 0 -0 0 -0 -0 0 -0 -0 0 -0 -3.1491 0.41137 41.237 -0 0 -0 -0 0 -0 32.751 26.094 112.09 -97.469 20.304 -35.465 -0 0 -0 -0 0 -0 81.12 -33.545 83.716 -27.002 -8.7452 -29.361 -0 0 -0 11.741 -15.234 15.855 11.741 -15.234 15.855 -0 0 -0 -0 0 -0 -0 0 -0 -0 0 -0 -0 0 -0 -0 0 -0 -0 0 -0 -0 0 -0 -0 0 -0 -0 0 -0 -0 0 -0 -0 0 -0 
0 95.5 0 -0 0 -0 -0 0 -0 -0 0 -0 -3.9584 -0.20851 41.876 -0 0 -0 -0 0 -0 32.612 26.554 113.76 -96.846 19.468 -38.899 -0 0 -0 -0 0 -0 83.562 -33.969 86.778 -30.701 -5.3837 -21.028 -0 0 -0 13.381 -15.658 15.143 13.381 -15.658 15.143 -0 0 -0 -0 0 -0 -0 0 -0 -0 0 -0 -0 0 -0 -0 0 -0 -0 0 -0 -0 0 -0 -0 0 -0 -0 0 -0 -0 0 -0 -0 0 -0 
0 95.5 0 -0 0 -0 -0 0 -0 -0 0 -0 -3.9706 -0.98534 43.044 -0 0 -0 -0 0 -0 32.187 27.419 114.94 -98.187 19.092 -38.118 -0 0 -0 -0 0 -0 84.578 -35.259 88.94 -33.39 -2.1168 -18.045 -0 0 -0 15.283 -15.056 13.664 15.283 -15.056 13.664 -0 0 -0 -0 0 -0 -0 0 -0 -0 0 -0 -0 0 -0 -0 0 -0 -0 0 -0 -0 0 -0 -0 0 -0 -0 0 -0 -0 0 -0 -0 0 -0 
0 95.5 0 -0 0 -0 -0 0 -0 -0 0 -0 -4.7366 -0.86407 44.047 -0 0 -0 -0 0 -0 31.543 27.506 117.44 -99.274 19.238 -35.9 -0 0 -0 -0 0 -0 86.457 -36.716 91.287 -36.467 0.64006 -12.696 -0 0 -0 16.955 -14.118 12.467 16.955 -14.118 12.467 -0 0 -0 -0 0 -0 -0 0 -0 -0 0 -0 -0 0 -0 -0 0 -0 -0 0 -0 -0 0 -0 -0 0 -0 -0 0 -0 -0 0 -0 -0 0 -0 
0 95.5 0 -0 0 -0 -0 0 -0 -0 0 -0 -5.5269 0.25677 44.525 -0 0 -0 -0 0 -0 29.371 28.266 120.91 -99.813 18.836 -36.583 -0 0 -0 -0 0 -0 87.519 -37.771 92.387 -38.804 1.8021 -10.541 -0 0 -0 17.353 -13.604 12.132 17.353 -13.604 12.132 -0 0 -0 -0 0 -0 -0 0 -0 -0 0 -0 -0 0 -0 -0 0 -0 -0 0 -0 -0 0 -0 -0 0 -0 -0 0 -0 -0 0 -0 -0 0 -0 
0 95.5 0 -0 0 -0 -0 0 -0 -0 0 -0 -6.8971 1.1148 45.46 -0 0 -0 -0 0 -0 27.072 29.801 124.2 -100.98 17.91 -39.526 -0 0 -0 -0 0 -0 88.948 -39.915 93.562 -40.346 2.2372 -8.6163 -0 0 -0 17.13 -14.078 11.882 17.13 -14.078 11.882 -0 0 -0 -0 0 -0 -0 0 -0 -0 0 -0 -0 0 -0 -0 0 -0 -0 0 -0 -0 0 -0 -0 0 -0 -0 0 -0 -0 0 -0 -0 0 -0 
0 95.5 0 -0 0 -0 -0 0 -0 -0 0 -0 -8.1027 1.7802 46.284 -0 0 -0 -0 0 -0 24.863 31.355 127.23 -100.92 15.905 -45.545 -0 0 -0 -0 0 -0 90.335 -41.579 93.608 -41.602 1.7471 -7.9149 -0 0 -0 16.698 -14.662 11.901 16.698 -14.662 11.901 -0 0 -0 -0 0 -0 -0 0 -0 -0 0 -0 -0 0 -0 -0 0 -0 -0 0 -0 -0 0 -0 -0 0 -0 -0 0 -0 -0 0 -0 -0 0 -0 
0 95.5 0 -0 0 -0 -0 0 -0 -0 0 -0 -8.6517 2.7738 46.805 -0 0 -0 -0 0 -0 21.616 32.684 130.39 -99.646 12.992 -55.094 -0 0 -0 -0 0 -0 90.889 -42.815 94.553 -43.284 1.8276 -7.1929 -0 0 -0 15.879 -15.101 12.26 15.879 -15.101 12.26 -0 0 -0 -0 0 -0 -0 0 -0 -0 0 -0 -0 0 -0 -0 0 -0 -0 0 -0 -0 0 -0 -0 0 -0 -0 0 -0 -0 0 -0 -0 0 -0 
0 95.5 0 -0 0 -0 -0 0 -0 -0 0 -0 -9.7902 3.6008 47.656 -0 0 -0 -0 0 -0 19.291 32.979 133.37 -99.124 11.378 -62.063 -0 0 -0 -0 0 -0 92.682 -44.343 96.281 -44.356 1.6991 -6.7502 -0 0 -0 15.107 -16.143 12.476 15.107 -16.143 12.476 -0 0 -0 -0 0 -0 -0 0 -0 -0 0 -0 -0 0 -0 -0 0 -0 -0 0 -0 -0 0 -0 -0 0 -0 -0 0 -0 -0 0 -0 -0 0 -0 
0 95.5 0 -0 0 -0 -0 0 -0 -0 0 -0 -10.764 4.4771 48.24 -0 0 -0 -0 0 -0 16.91 32.514 135.83 -99.185 10.946 -65.987 -0 0 -0 -0 0 -0 94.383 -45.551 98.477 -44.893 1.6183 -6.7999 -0 0 -0 14.075 -17.599 12.756 14.075 -17.599 12.756 -0 0 -0 -0 0 -0 -0 0 -0 -0 0 -0 -0 0 -0 -0 0 -0 -0 0 -0 -0 0 -0 -0 0 -0 -0 0 -0 -0 0 -0 -0 0 -0 
0 95.5 0 -0 0 -0 -0 0 -0 -0 0 -0 -11.587 5.3257 48.594 -0 0 -0 -0 0 -0 14.699 31.834 136.94 -98.802 9.4662 -70.854 -0 0 -0 -0 0 -0 95.713 -46.348 100 -45.404 1.5938 -6.9543 -0 0 -0 12.83 -19.053 13.063 12.83 -19.053 13.063 -0 0 -0 -0 0 -0 -0 0 -0 -0 0 -0 -0 0 -0 -0 0 -0 -0 0 -0 -0 0 -0 -0 0 -0 -0 0 -0 -0 0 -0 -0 0 -0 
0 95.5 0 -0 0 -0 -0 0 -0 -0 0 -0 -11.967 5.9684 48.79 -0 0 -0 -0 0 -0 12.768 31.147 137.46 -98.414 8.2108 -73.91 -0 0 -0 -0 0 -0 96.175 -47.15 101.27 -45.738 1.8031 -6.9248 -0 0 -0 11.519 -19.976 13.155 11.519 -19.976 13.155 -0 0 -0 -0 0 -0 -0 0 -0 -0 0 -0 -0 0 -0 -0 0 -0 -0 0 -0 -0 0 -0 -0 0 -0 -0 0 -0 -0 0 -0 -0 0 -0 
0 95.5 0 -0 0 -0 -0 0 -0 -0 0 -0 -12.316 6.231 49.096 -0 0 -0 -0 0 -0 11.723 30.308 137.86 -97.877 8.4281 -74.114 -0 0 -0 -0 0 -0 96.481 -48.03 101.23 -46.005 1.592 -6.8753 -0 0 -0 10.425 -20.401 13.041 10.425 -20.401 13.041 -0 0 -0 -0 0 -0 -0 0 -0 -0 0 -0 -0 0 -0 -0 0 -0 -0 0 -0 -0 0 -0 -0 0 -0 -0 0 -0 -0 0 -0 -0 0 -0 
0 95.5 0 -0 0 -0 -0 0 -0 -0 0 -0 -12.116 6.2391 49.04 -0 0 -0 -0 0 -0 11.086 29.945 138.38 -96.699 9.2719 -73.923 -0 0 -0 -0 0 -0 95.908 -48.76 100.25 -45.882 1.4924 -6.7824 -0 0 -0 9.5294 -20.098 13.137 9.5294 -20.098 13.137 -0 0 -0 -0 0 -0 -0 0 -0 -0 0 -0 -0 0 -0 -0 0 -0 -0 0 -0 -0 0 -0 -0 0 -0 -0 0 -0 -0 0 -0 -0 0 -0 
0 95.5 0 -0 0 -0 -0 0 -0 -0 0 -0 -11.579 6.0962 48.863 -0 0 -0 -0 0 -0 10.799 29.869 138.17 -95.399 10.376 -71.892 -0 0 -0 -0 0 -0 94.706 -49.45 99.54 -44.528 1.9671 -9.1387 -0 0 -0 8.7471 -19.341 13.222 8.7471 -19.341 13.222 -0 0 -0 -0 0 -0 -0 0 -0 -0 0 -0 -0 0 -0 -0 0 -0 -0 0 -0 -0 0 -0 -0 0 -0 -0 0 -0 -0 0 -0 -0 0 -0 
0 95.5 0 -0 0 -0 -0 0 -0 -0 0 -0 -11.067 5.8614 48.785 -0 0 -0 -0 0 -0 11.298 29.794 137.52 -93.851 12.226 -67.371 -0 0 -0 -0 0 -0 93.236 -49.828 98.094 -41.425 4.397 -16.023 -0 0 -0 8.0867 -18.548 13.177 8.0867 -18.548 13.177 -0 0 -0 -0 0 -0 -0 0 -0 -0 0 -0 -0 0 -0 -0 0 -0 -0 0 -0 -0 0 -0 -0 0 -0 -0 0 -0 -0 0 -0 -0 0 -0 
0 95.5 0 -0 0 -0 -0 0 -0 -0 0 -0 -10.31 5.7946 48.79 -0 0 -0 -0 0 -0 12.118 29.704 136.51 -91.916 14.176 -62.351 -0 0 -0 -0 0 -0 91.624 -49.78 96.496 -40.397 4.3901 -18.482 -0 0 -0 7.3939 -17.685 13.178 7.3939 -17.685 13.178 -0 0 -0 -0 0 -0 -0 0 -0 -0 0 -0 -0 0 -0 -0 0 -0 -0 0 -0 -0 0 -0 -0 0 -0 -0 0 -0 -0 0 -0 -0 0 -0 
0 95.5 0 -0 0 -0 -0 0 -0 -0 0 -0 -9.6272 5.5307 48.985 -0 0 -0 -0 0 -0 13.089 29.616 135.04 -89.717 14.475 -61.263 -0 0 -0 -0 0 -0 90.513 -49.549 94.302 -39.853 3.6619 -20.644 -0 0 -0 6.856 -16.866 13.188 6.856 -16.866 13.188 -0 0 -0 -0 0 -0 -0 0 -0 -0 0 -0 -0 0 -0 -0 0 -0 -0 0 -0 -0 0 -0 -0 0 -0 -0 0 -0 -0 0 -0 -0 0 -0 
0 95.5 0 -0 0 -0 -0 0 -0 -0 0 -0 -9.1144 5.2749 49.24 -0 0 -0 -0 0 -0 13.797 29.387 134.21 -88.128 14.086 -62.761 -0 0 -0 -0 0 -0 89.884 -49.339 93.069 -38.662 2.799 -24.77 -0 0 -0 6.472 -16.316 13.161 6.472 -16.316 13.161 -0 0 -0 -0 0 -0 -0 0 -0 -0 0 -0 -0 0 -0 -0 0 -0 -0 0 -0 -0 0 -0 -0 0 -0 -0 0 -0 -0 0 -0 -0 0 -0 
0 95.5 0 -0 0 -0 -0 0 -0 -0 0 -0 -8.7237 5.0677 49.69 -0 0 -0 -0 0 -0 14.205 29.329 133.11 -87.845 13.328 -63.18 -0 0 -0 -0 0 -0 89.675 -49.147 92.363 -37.88 1.8112 -26.899 -0 0 -0 6.1324 -15.937 12.79 6.1324 -15.937 12.79 -0 0 -0 -0 0 -0 -0 0 -0 -0 0 -0 -0 0 -0 -0 0 -0 -0 0 -0 -0 0 -0 -0 0 -0 -0 0 -0 -0 0 -0 -0 0 -0 
0 95.5 0 -0 0 -0 -0 0 -0 -0 0 -0 -8.5356 5.0471 50.273 -0 0 -0 -0 0 -0 14.534 29.207 132.44 -87.611 12.72 -63.523 -0 0 -0 -0 0 -0 89.651 -48.967 91.898 -37.258 0.65619 -28.456 -0 0 -0 5.639 -15.95 11.926 5.639 -15.95 11.926 -0 0 -0 -0 0 -0 -0 0 -0 -0 0 -0 -0 0 -0 -0 0 -0 -0 0 -0 -0 0 -0 -0 0 -0 -0 0 -0 -0 0 -0 -0 0 -0 
0 95.5 0 -0 0 -0 -0 0 -0 -0 0 -0 -8.3179 4.914 50.831 -0 0 -0 -0 0 -0 14.626 29.353 132.1 -86.896 11.801 -64.613 -0 0 -0 -0 0 -0 89.516 -48.724 91.445 -36.685 -0.28423 -29.489 -0 0 -0 4.8529 -16.427 10.144 4.8529 -16.427 10.144 -0 0 -0 -0 0 -0 -0 0 -0 -0 0 -0 -0 0 -0 -0 0 -0 -0 0 -0 -0 0 -0 -0 0 -0 -0 0 -0 -0 0 -0 -0 0 -0 
0 95.5 0 -0 0 -0 -0 0 -0 -0 0 -0 -8.202 4.7187 51.141 -0 0 -0 -0 0 -0 14.297 29.614 132.56 -85.767 11.382 -65.228 -0 0 -0 -0 0 -0 89.253 -48.189 90.441 -36.275 -1.6362 -29.372 -0 0 -0 3.4852 -17.591 6.5407 3.4852 -17.591 6.5408 -0 0 -0 -0 0 -0 -0 0 -0 -0 0 -0 -0 0 -0 -0 0 -0 -0 0 -0 -0 0 -0 -0 0 -0 -0 0 -0 -0 0 -0 -0 0 -0 
0 95.5 0 -0 0 -0 -0 0 -0 -0 0 -0 -8.1713 4.52 50.972 -0 0 -0 -0 0 -0 13.089 30.155 134.17 -84.212 10.847 -66.806 -0 0 -0 -0 0 -0 89.03 -47.076 90.11 -35.938 -2.2038 -29.5 -0 0 -0 1.2224 -19.18 0.96013 1.2224 -19.18 0.96013 -0 0 -0 -0 0 -0 -0 0 -0 -0 0 -0 -0 0 -0 -0 0 -0 -0 0 -0 -0 0 -0 -0 0 -0 -0 0 -0 -0 0 -0 -0 0 -0 
0 95.5 0 -0 0 -0 -0 0 -0 -0 0 -0 -7.989 4.5046 50.374 -0 0 -0 -0 0 -0 10.599 30.9 136.54 -82.826 9.995 -69.08 -0 0 -0 -0 0 -0 88.459 -45.668 89.045 -35.648 -2.9215 -28.542 -0 0 -0 -1.7391 -20.643 -5.5438 -1.7391 -20.643 -5.5438 -0 0 -0 -0 0 -0 -0 0 -0 -0 0 -0 -0 0 -0 -0 0 -0 -0 0 -0 -0 0 -0 -0 0 -0 -0 0 -0 -0 0 -0 -0 0 -0 
0 95.5 0 -0 0 -0 -0 0 -0 -0 0 -0 -8.0661 4.4964 50.017 -0 0 -0 -0 0 -0 8.1646 31.497 139.23 -81.95 8.0115 -75.543 -0 0 -0 -0 0 -0 87.609 -45.074 87.909 -34.926 -4.0563 -26.956 -0 0 -0 -4.7863 -21.587 -12.04 -4.7863 -21.587 -12.04 -0 0 -0 -0 0 -0 -0 0 -0 -0 0 -0 -0 0 -0 -0 0 -0 -0 0 -0 -0 0 -0 -0 0 -0 -0 0 -0 -0 0 -0 -0 0 -0 
0 95.5 0 -0 0 -0 -0 0 -0 -0 0 -0 -8.2421 4.3415 49.638 -0 0 -0 -0 0 -0 6.0851 32.183 141.95 -83.479 4.1202 -87.338 -0 0 -0 -0 0 -0 85.151 -45.268 82.752 -32.765 -8.5543 -22.645 -0 0 -0 -7.0733 -21.711 -17.233 -7.0733 -21.711 -17.233 -0 0 -0 -0 0 -0 -0 0 -0 -0 0 -0 -0 0 -0 -0 0 -0 -0 0 -0 -0 0 -0 -0 0 -0 -0 0 -0 -0 0 -0 -0 0 -0 
